<?xml version="1.0" encoding="utf-8"?>
<!-- Generator: Adobe Illustrator 22.1.0, SVG Export Plug-In . SVG Version: 6.00 Build 0)  -->
<svg version="1.1" id="Aspose.PSD" xmlns="http://www.w3.org/2000/svg" xmlns:xlink="http://www.w3.org/1999/xlink" x="0px" y="0px"
	 viewBox="0 0 277 277" style="enable-background:new 0 0 277 277;" xml:space="preserve">
<style type="text/css">
	.st0{fill:#FFFFFF;}
	.st1{fill:#A4C547;}
	.st2{fill:#9CC53E;}
	.st3{fill:none;stroke:#FFFFFF;stroke-width:5;stroke-linecap:round;stroke-linejoin:round;stroke-miterlimit:10;}
</style>
<g id="_x2E_NET">
	<path id="XMLID_8_" class="st0" d="M180.5,87.5c-25.8,0-47.7,9.1-65.7,27.2c-18.1,18-27.2,39.9-27.2,65.7s9.1,47.7,27.2,65.6
		c6.7,6.8,13.9,12.3,21.6,16.6H23.6c-1.8-0.1-3.5-0.6-5.2-1.5c-2.8-1.4-4.2-4-4.2-7.9V23.6c0.2-2,0.7-3.8,1.4-5.2
		c1.5-2.8,4.2-4.2,8.1-4.2h229.5l1.5,0.3c1.4,0.2,2.5,0.6,3.6,1c2.9,1.4,4.4,4,4.4,8.1v112.9c-4.3-7.8-9.8-15.1-16.6-21.8
		C227.7,96.6,205.9,87.5,180.5,87.5z"/>
	<g>
		<path id="XMLID_2_" class="st1" d="M180.5,87.5c25.4,0,47.3,9.1,65.5,27.2c6.8,6.7,12.3,14,16.5,21.8V23.6c0-4.1-1.5-6.8-4.4-8.1
			c-1-0.4-2.2-0.8-3.6-1l-1.5-0.3H23.6c-3.9,0-6.6,1.4-8.1,4.2c-0.7,1.5-1.1,3.2-1.4,5.2v229.4c0,3.9,1.4,6.6,4.2,7.9
			c1.7,0.9,3.4,1.4,5.2,1.5h112.8c-7.8-4.3-15-9.8-21.6-16.6c-18.1-17.9-27.2-39.8-27.2-65.6s9.1-47.7,27.2-65.7
			C132.8,96.6,154.7,87.5,180.5,87.5z M259.1,3.7c2.5,0.5,4.4,1.1,5.7,1.9c5.6,2.7,8.4,7.6,8.4,14.7v160.2
			c0,25.7-9.1,47.5-27.4,65.6c-18.2,18.2-40.1,27.4-65.5,27.4H20.2c-2.7,0-5.5-0.7-8.4-2c-5.6-2.9-8.4-7.9-8.4-14.9V20.2
			c0-2.8,0.7-5.6,2.2-8.4c2.7-5.6,7.6-8.4,14.7-8.4h236.2L259.1,3.7z"/>
		<g>
			<path class="st1" d="M71,55.4c0,6.1-2,10.8-6,14.1c-4,3.3-9.7,4.9-17.1,4.9h-6.1v21.9h-9.6V37.7h16.9c7.3,0,12.8,1.5,16.4,4.5
				C69.2,45.2,71,49.6,71,55.4z M41.8,66.3h5.1c4.9,0,8.5-0.8,10.8-2.6c2.3-1.7,3.4-4.4,3.4-8c0-3.4-1-5.9-3.1-7.5
				c-2.1-1.7-5.3-2.5-9.6-2.5h-6.7L41.8,66.3L41.8,66.3z"/>
			<path class="st1" d="M94.6,85.6c0,3.5-1.3,6.2-3.8,8.2c-2.5,2-6,3-10.4,3s-8.1-0.7-10.9-2.1v-6.1c1.8,0.8,3.7,1.5,5.7,2
				c2,0.5,3.9,0.7,5.6,0.7c2.5,0,4.4-0.5,5.6-1.4c1.2-1,1.8-2.3,1.8-3.9c0-1.5-0.6-2.7-1.7-3.7c-1.1-1-3.4-2.2-6.9-3.6
				c-3.6-1.4-6.1-3.1-7.6-5c-1.5-1.9-2.2-4.1-2.2-6.7c0-3.3,1.2-5.8,3.5-7.7c2.3-1.9,5.4-2.8,9.4-2.8c3.8,0,7.5,0.8,11.2,2.5l-2,5.2
				c-3.5-1.5-6.6-2.2-9.3-2.2c-2.1,0-3.7,0.5-4.7,1.4c-1.1,0.9-1.6,2.1-1.6,3.6c0,1,0.2,1.9,0.6,2.6s1.1,1.4,2.1,2.1
				s2.8,1.5,5.3,2.6c2.9,1.2,5,2.3,6.3,3.4c1.3,1,2.3,2.2,3,3.5C94.3,82.3,94.6,83.8,94.6,85.6z"/>
			<path class="st1" d="M128.6,76.3c0,6.5-1.8,11.4-5.4,14.9c-3.6,3.4-8.8,5.1-15.6,5.1h-11V57h12.1c6.3,0,11.1,1.7,14.6,5
				C126.9,65.4,128.6,70.2,128.6,76.3z M121.9,76.5c0-9.4-4.4-14.1-13.2-14.1h-5.6v28.5h4.6C117.2,90.9,121.9,86.1,121.9,76.5z"/>
		</g>
	</g>
	<g>
		<g>
			<polygon class="st2" points="191.4,133.2 172.9,155.6 195.8,156.6 210.4,129.6 			"/>
		</g>
	</g>
</g>
<path class="st3" d="M198.6,201.5"/>
<line class="st3" x1="162.2" y1="233.4" x2="198.3" y2="201.8"/>
<path class="st3" d="M162.3,161.5"/>
<line class="st3" x1="126.7" y1="193" x2="162.1" y2="162"/>
<line class="st3" x1="149.3" y1="191.5" x2="181.1" y2="161"/>
<line class="st3" x1="166.4" y1="212.4" x2="199.7" y2="180.6"/>
<path class="st3" d="M231.5,148.7"/>
<line class="st3" x1="219.7" y1="135.2" x2="231.2" y2="148.4"/>
<path class="st3" d="M221.8,134.6"/>
<line class="st3" x1="180.5" y1="145.4" x2="219.6" y2="135.2"/>
<path class="st3" d="M231.4,147.9"/>
<line class="st3" x1="217.6" y1="187.2" x2="231.2" y2="148.4"/>
<path class="st3" d="M166.5,167.1"/>
<path class="st3" d="M163,161.6"/>
<path class="st3" d="M163,161.6"/>
<line class="st3" x1="226.6" y1="143.1" x2="209.4" y2="161.4"/>
<line class="st3" x1="224.8" y1="141.1" x2="204.2" y2="155.4"/>
<g>
	<line class="st3" x1="126.9" y1="193.2" x2="148.9" y2="191.7"/>
</g>
<g>
	<line class="st3" x1="148.9" y1="191.9" x2="166.4" y2="212.1"/>
</g>
<g>
	<line class="st3" x1="122.4" y1="214.8" x2="126.7" y2="193.2"/>
</g>
<g>
	<line class="st3" x1="162.1" y1="233.4" x2="140.1" y2="235.1"/>
</g>
<g>
	<line class="st3" x1="140" y1="234.9" x2="122.3" y2="214.9"/>
</g>
<g>
	<path class="st3" d="M162.2,233.5"/>
</g>
<g>
	<line class="st3" x1="166.4" y1="211.9" x2="162.2" y2="233.1"/>
</g>
<path class="st3" d="M170.5,150"/>
<line class="st3" x1="181.1" y1="161" x2="161.9" y2="161.8"/>
<line class="st3" x1="198.3" y1="201.8" x2="199.7" y2="180.6"/>
<line class="st3" x1="181.1" y1="161" x2="199.7" y2="180.6"/>
<path class="st3" d="M191.3,207.8"/>
<path class="st3" d="M157.5,165.7c0.6-3.1,2.1-5.8,4.3-7.8c8.1-7.1,23.8-2.4,35.1,10.5c11.3,12.9,13.9,29.1,5.8,36.2
	c-2.8,2.5-6.6,3.5-10.8,3.3"/>
<path class="st3" d="M172.4,148.7c8.1-7.1,23.8-2.4,35.1,10.5c11.3,12.9,13.9,29.1,5.8,36.2"/>
<line class="st3" x1="161.4" y1="158.3" x2="172.7" y2="148.4"/>
<line class="st3" x1="203.1" y1="204.2" x2="213.6" y2="195"/>
</svg>
